PathFileType	4	(X/Y/Z)	C:/Users/beibeiliu/ov580/test_trc\sequence.26_training_dense_right.trc
DataRate	CameraRate	NumFrames	NumMarkers	Units	OrigDataRate	OrigDataStartFrame	OrigNumFrames
120	120	20	19	mm	120	351	400
Frame#	Time	ThumbCMC			ThumbMCP			ThumbIP			ThumbTip			IndexMCP			IndexPIP			IndexTip			MiddleMCP			MiddlePIP			MiddleTip			RingMCP			RingPIP			RingTip			PinkyMCP			PinkyPIP			PinkyTip			BackHand1			BackHand2			BackHand3	
		X0	Y0	Z0	X1	Y1	Z1	X2	Y2	Z2	X3	Y3	Z3	X4	Y4	Z4	X5	Y5	Z5	X6	Y6	Z6	X7	Y7	Z7	X8	Y8	Z8	X9	Y9	Z9	X10	Y10	Z10	X11	Y11	Z11	X12	Y12	Z12	X13	Y13	Z13	X14	Y14	Z14	X15	Y15	Z15	X16	Y16	Z16	X17	Y17	Z17	X18	Y18	Z18	
350	2.91667	159.361	17.5374	32.4207	152.762	-7.33783	22.1853	149.515	-24.2802	9.65259	138.585	-37.6028	-1.36239	186.015	-15.7706	-9.90387	177.887	-35.9427	6.82098	173.203	-12.1357	27.3114	202.826	-22.7553	1.33292	188.005	-38.2199	19.8971	182.707	-10.6132	37.907	217.173	-21.1556	9.51172	200.598	-37.1131	27.9886	189.956	-12.6778	35.2446	242.002	-3.23773	21.2725	255.607	-12.2855	18.748	270.503	-20.4104	6.34802	215.935	25.654	28.4796	207.683	40.9947	51.9613	189.454	36.9029	26.3254	
351	2.925	160.35	14.2543	33.2442	155.655	-9.92749	22.2061	148.731	-26.1499	6.65411	148.512	-41.6324	-7.38527	191.39	-13.6919	-11.5666	184.957	-35.6019	8.26766	175.786	-16.0811	23.6492	207.759	-17.9824	-2.47185	194.261	-39.8467	14.3057	182.998	-15.2933	33.8709	221.345	-18.6124	5.86768	206.219	-36.6366	21.966	196.727	-17.8925	36.682	240.419	1.59077	19.4626	256.78	-7.97967	10.5689	273.978	-12.4177	1.1159	212.5	25.0414	25.0753	203.619	41.7788	49.3688	187.673	34.045	23.3627	
352	2.93333	158.961	10.7669	29.8683	155.369	-12.7273	20.296	153.259	-28.7879	1.42217	149.526	-40.1451	-6.37466	189.392	-12.5739	-15.9138	189.424	-36.5604	0.222472	179.398	-17.6647	21.7453	207.928	-20.053	-5.93987	196.781	-38.7537	11.1885	182.402	-14.0024	29.8142	223.626	-14.191	2.66595	212.504	-35.6382	14.0126	194.85	-16.1128	30.9619	241.157	5.66924	16.9807	255.361	-1.76033	5.16555	270.46	-5.55928	-6.29459	214.338	28.8443	28.0014	202.793	39.2418	50.7714	182.45	32.8762	22.1587	
353	2.94167	157.632	8.51848	33.1716	158.299	-15.3181	13.753	156.852	-29.3472	-2.07355	148.494	-41.5293	-13.5422	192.669	-10.1411	-17.9138	188.867	-35.6152	-4.58058	182.764	-15.7932	18.4326	209.231	-13.6996	-9.48623	205.335	-37.3066	7.38428	189.792	-13.8215	28.5037	225.907	-12.4672	-2.48782	211.621	-33.2917	11.4454	199.405	-19.2185	27.1409	242.126	9.16536	12.6111	251.896	3.4432	1.10709	268.001	-0.172153	-11.7171	210.072	30.4931	26.8462	199.569	39.1876	44.0775	181.948	33.6569	27.8194	
354	2.95	157.203	5.68652	31.5116	157.761	-15.6821	16.0513	156.818	-27.9195	-2.30178	147.937	-39.335	-14.0331	189.275	-9.99788	-23.132	191.217	-32.2854	-6.9879	181.893	-17.9764	14.7638	207.697	-13.6145	-15.4415	205.22	-34.7197	2.22757	187.81	-12.23	24.2401	222.912	-6.06331	-6.80697	216.645	-31.1315	6.56061	200.105	-17.0976	25.7684	242.617	13.0783	5.14465	253.745	8.80049	-2.41364	266.747	5.86294	-16.1105	210.663	30.6878	25.2351	197.009	36.7702	44.7469	180.952	33.333	28.0756	
355	2.95833	158.058	4.41813	33.4975	157.607	-16.7512	10.0858	154.601	-26.0294	-3.21273	149.067	-37.2065	-19.9995	190.578	-4.82616	-23.978	188.828	-32.0251	-11.4322	181.832	-14.8767	12.303	208.141	-5.94833	-16.9165	205.898	-32.8377	-2.92697	188.357	-14.9727	20.2416	222.934	-5.99113	-11.9266	213.667	-29.0954	-0.536139	200.496	-16.261	22.1509	240.475	16.4265	-0.250129	250.593	12.2822	-7.07928	263.229	13.4712	-20.6934	209.233	31.7957	20.4944	198.996	36.577	45.6076	179.192	31.8497	25.8858	
356	2.96667	159.075	2.70324	31.2053	158.149	-15.5086	9.32977	155.635	-24.2972	-7.42197	146.329	-34.047	-20.2715	187.577	-2.5578	-27.626	191.962	-26.6393	-19.3983	182.316	-17.908	7.70429	206.818	-7.00051	-22.2758	203.001	-30.6026	-5.9465	189.553	-12.3987	17.0034	220.511	-1.29858	-16.3328	216.204	-25.9336	-4.70823	204.96	-19.3445	17.2589	239.491	18.9036	0.92933	248.989	16.6041	-13.6168	263.201	19.1544	-30.4861	208.682	33.6929	22.6294	202.225	36.6593	46.625	176.403	29.8171	24.852	
357	2.975	162.322	2.08986	28.4688	158.575	-14.1066	11.8139	151.152	-21.1969	-12.3511	148.183	-28.1751	-28.088	182.893	0.476281	-28.8536	187.65	-26.0093	-19.1654	183.741	-17.1849	5.58231	201.056	-0.655794	-23.8555	204.393	-27.8628	-10.4131	194.442	-12.1572	16.2549	223.038	4.37448	-17.3609	215.99	-22.6721	-10.7953	204.317	-15.471	13.769	234.729	22.7473	-3.58093	244.65	21.7024	-19.1841	254.842	26.7634	-33.1274	207.929	35.05	18.9451	200.221	34.0157	47.7805	181.781	32.7624	26.5663	
358	2.98333	162.474	0.704226	30.2168	157.021	-13.8022	9.04428	150.94	-19.1358	-10.9784	142.979	-25.9421	-24.7127	180.093	3.57314	-29.5785	191.288	-21.7052	-25.4698	183.91	-12.6911	4.03286	199.708	3.63304	-26.5062	206.4	-24.6561	-16.915	192.452	-13.8011	11.3695	216.6	8.54065	-22.0989	216.32	-19.7514	-15.146	205.77	-13.4275	10.0277	237.09	26.6755	-4.6145	243.77	27.458	-23.5055	252.06	31.1991	-40.8477	209.165	36.0707	17.9547	204.512	31.715	47.1021	179.375	29.8789	29.1081	
359	2.99167	165.483	-1.20978	34.7119	161.855	-11.3021	8.9281	150.955	-18.2467	-8.77426	141.422	-23.916	-24.1363	179.067	6.49873	-29.079	187.155	-22.6858	-23.2693	187.585	-12.8886	3.08255	202.716	5.60211	-26.4225	206.594	-22.1955	-19.6516	192.657	-12.9731	10.5833	219.83	8.3697	-25.0535	217.226	-18.4816	-18.0568	205.524	-14.5163	6.28291	235.082	28.0176	-11.7684	239.386	29.0954	-24.6012	251.499	34.7205	-38.8361	208.862	32.3269	22.2649	205.876	32.8433	46.1214	181.86	29.6916	30.2395	
360	3	168.016	-1.10259	34.6232	163.694	-10.215	9.25108	151.222	-15.242	-10.9084	142.603	-20.9322	-24.6394	180.303	5.10905	-31.4399	189.967	-18.5214	-26.645	184.257	-14.4979	1.37992	202.929	4.13914	-27.9045	205.227	-22.7069	-18.6867	194.963	-11.8411	10.5691	220.658	8.06031	-27.3976	215.892	-16.6749	-19.9241	208.943	-15.3819	5.14545	236.054	28.4481	-11.0911	244.159	29.3876	-26.9473	250.874	34.057	-42.6065	212.26	34.8583	21.5229	205.388	30.2365	46.0338	185.644	29.425	28.4041	
361	3.00833	169.373	-0.0508531	33.325	160.785	-10.5854	9.04209	153.067	-12.1747	-12.0666	144.454	-17.7531	-26.4677	182.389	6.67526	-29.1326	190.659	-19.0726	-24.7005	183.364	-10.5485	4.32402	200.845	6.41093	-27.3497	204.048	-21.767	-21.8782	196.857	-11.0437	11.3257	221.45	10.3914	-23.635	217.842	-18.7731	-18.0905	206.137	-12.9754	6.51253	238.564	26.7671	-9.43929	242.681	28.1715	-29.5016	253.613	32.8006	-40.1144	214.908	34.1923	24.6895	212.665	28.9707	47.9089	184.328	27.7317	28.8456	
362	3.01667	173.42	1.23712	36.6794	160.409	-9.63987	10.9752	152.391	-13.0811	-7.61411	145.741	-16.601	-23.9996	182.205	9.50539	-27.2565	191.196	-18.1897	-25.0901	186.053	-13.6373	2.97283	206.387	4.85841	-26.331	207.416	-22.8129	-19.3526	200.681	-12.6843	11.3693	218.807	7.63715	-25.9469	217.603	-16.063	-21.7779	211.514	-15.5556	7.73764	241.436	25.3421	-9.50712	247.501	25.7778	-24.1636	252.549	31.1492	-42.323	213.364	32.8725	23.2313	210.744	27.2791	47.1742	190.129	29.6055	35.2179	
363	3.025	169.238	0.0924836	37.1031	165.214	-7.77757	13.2218	154.932	-9.78091	-11.9916	146.937	-12.7437	-28.0889	182.187	8.64442	-28.8423	188.022	-18.027	-28.1772	190.958	-13.8688	3.51125	206.06	4.35502	-27.8375	203.774	-23.3058	-21.403	199.122	-14.7384	9.90518	218.908	7.85969	-23.7714	217.195	-18.3435	-19.4189	210.14	-14.7002	9.01371	243.371	24.4605	-8.89828	248.972	24.9321	-25.4335	254.199	31.5962	-44.0639	216.95	31.2954	20.7559	212.518	29.1917	48.3057	191.59	30.3645	34.3976	
364	3.03333	171.704	3.23989	32.9759	166.145	-5.88781	10.1926	154.665	-7.22394	-12.7989	150.234	-11.4955	-27.5527	186.534	11.5813	-28.2141	189.297	-14.8957	-31.9702	187.14	-18.8108	0.464762	207.124	4.44559	-29.3046	206.244	-22.9878	-18.5762	200.234	-16.4482	10.1123	219.867	8.17925	-24.8933	218.076	-18.4036	-19.5657	208.886	-16.2772	6.27832	241.376	23.6295	-7.90425	251.404	24.2846	-24.0786	258.964	29.9854	-43.1299	217.154	31.7677	24.7698	213.38	28.6582	49.2644	191.786	29.6241	33.3761	
365	3.04167	172.944	4.25909	35.7318	164.829	-5.59395	9.89345	158.263	-5.42281	-12.8639	151.243	-9.8089	-25.4551	187.049	15.72	-25.8296	189.184	-14.4338	-32.1138	188.225	-22.5969	-3.98053	205.891	6.76558	-29.3851	204.169	-21.4154	-24.804	202.551	-21.0685	7.24892	220.93	9.73337	-22.9836	216.985	-14.8766	-24.0502	212.768	-19.0748	3.81745	245.612	23.3693	-6.35982	252.281	25.1797	-25.2669	258.772	28.8265	-42.8768	220.773	32.675	22.4697	214.984	28.5664	51.7163	190.22	28.7192	35.7999	
366	3.05	172.429	4.36192	36.9335	163.935	-3.37683	7.51387	155.958	-4.44161	-11.7591	150.552	-6.99782	-27.4891	188.141	16.3471	-29.5849	191.505	-10.7943	-35.4177	188.511	-25.946	-9.62321	208.128	11.6766	-27.292	202.986	-18.717	-29.4272	200.064	-26.1656	0.904214	224.689	9.35065	-24.4666	221.452	-15.1943	-25.4646	207.786	-20.6384	2.18813	241.646	22.1882	-5.53948	249.006	25.7924	-25.8222	255.986	29.4057	-42.736	218.414	30.8312	22.3246	218.411	27.1302	49.5602	195.124	31.4455	36.9442	
367	3.05833	175.246	6.19976	34.7595	166.271	-2.29661	10.1287	158.804	-3.71734	-12.0276	154.954	-4.29229	-29.1925	190.772	21.0527	-26.6558	189.036	-5.94502	-39.3321	189.964	-26.9351	-23.6603	208.673	14.2191	-29.1413	207.363	-12.2925	-36.577	202.128	-32.6373	-6.11751	226.332	13.0773	-22.7852	218.866	-15.1583	-29.319	207.736	-24.6087	-6.61559	247.639	22.4171	-6.48539	249.615	24.0426	-24.1166	256.657	27.343	-39.8721	222.054	33.6547	22.5191	222.464	27.0491	50.6019	193.633	31.4739	32.5349	
368	3.06667	174.768	6.61885	35.9194	170.596	-0.191082	7.29317	161.314	-1.59973	-11.6404	154.096	-2.85532	-32.5421	185.44	22.6409	-27.7948	189.006	1.67496	-44.0735	189.03	-26.6503	-37.9603	208.598	19.726	-28.2286	210.618	-8.08135	-42.7348	205.118	-35.7324	-26.3304	225.59	16.7962	-22.5093	223.084	-11.6162	-34.9899	211.9	-30.4481	-20.6336	246.595	21.5409	-4.67486	251.723	22.4781	-21.8775	262.948	25.7663	-38.593	222.979	32.5015	24.7351	220.299	28.7653	51.7967	199.171	32.431	37.6335	
369	3.075	174.533	7.52875	33.953	170.201	-0.726214	11.6041	164.414	0.794745	-15.4319	155.693	-2.32286	-32.8824	190.344	21.9809	-31.4775	190.761	3.16139	-46.534	193.552	-24.7037	-50.0075	211.182	21.0173	-30.8305	210.138	-2.81958	-49.1537	207.647	-31.2361	-48.1584	228.777	15.9395	-27.1826	225.562	-1.27371	-40.7574	216.902	-25.4434	-40.965	244.811	19.8725	-7.17483	253.719	20.3682	-22.9242	264.312	21.4084	-43.9035	223.306	32.2851	26.5033	221.149	27.9171	47.1472	199.808	33.6212	35.0914	
